<?xml version="1.0" standalone="no"?>
<!DOCTYPE svg PUBLIC "-//W3C//DTD SVG 20010904//EN"
 "http://www.w3.org/TR/2001/REC-SVG-20010904/DTD/svg10.dtd">
<svg version="1.0" xmlns="http://www.w3.org/2000/svg"
 width="512.000000pt" height="512.000000pt" viewBox="0 0 512.000000 512.000000"
 preserveAspectRatio="xMidYMid meet">

<g transform="translate(0.000000,512.000000) scale(0.100000,-0.100000)"
fill="#000000" stroke="none">
<path d="M2325 4868 c-692 -69 -1333 -462 -1711 -1048 -498 -771 -497 -1763 4
-2525 101 -154 175 -245 303 -374 129 -128 220 -202 374 -303 912 -599 2136
-470 2907 305 352 354 576 801 655 1308 24 159 24 500 0 659 -49 312 -153 600
-313 870 -178 299 -491 609 -800 793 -423 252 -928 365 -1419 315z m478 -163
c974 -114 1744 -856 1893 -1823 142 -932 -360 -1873 -1214 -2274 -659 -309
-1425 -269 -2042 107 -866 527 -1250 1584 -924 2541 327 958 1286 1566 2287
1449z"/>
<path d="M2505 4535 c-50 -49 -15 -135 55 -135 19 0 40 9 55 25 16 15 25 36
25 55 0 19 -9 40 -25 55 -15 16 -36 25 -55 25 -19 0 -40 -9 -55 -25z"/>
<path d="M2176 4509 c-51 -40 -18 -139 47 -139 55 0 100 67 76 113 -27 50 -78
61 -123 26z"/>
<path d="M2849 4517 c-45 -34 -46 -92 -2 -127 34 -27 69 -25 98 5 35 34 34 86
-1 114 -30 23 -71 27 -95 8z"/>
<path d="M1849 4421 c-43 -34 -27 -111 28 -132 28 -10 80 7 93 31 42 79 -52
157 -121 101z"/>
<path d="M3160 4418 c-38 -41 -22 -108 30 -127 56 -19 104 16 104 76 0 66 -88
100 -134 51z"/>
<path d="M1545 4275 c-14 -13 -25 -36 -25 -50 0 -29 49 -85 74 -85 45 0 86 43
86 91 0 31 -44 69 -80 69 -19 0 -40 -9 -55 -25z"/>
<path d="M3465 4275 c-31 -30 -32 -66 -2 -101 17 -20 33 -27 57 -27 39 0 80
40 80 77 0 68 -86 101 -135 51z"/>
<path d="M2336 4224 c-348 -47 -676 -204 -932 -446 -674 -639 -700 -1706 -57
-2379 512 -536 1319 -672 1979 -333 579 297 937 907 910 1549 -11 272 -63 472
-183 710 -320 630 -1016 995 -1717 899z m515 -173 c309 -62 554 -195 780 -420
230 -231 366 -487 425 -806 25 -134 25 -401 0 -530 -64 -336 -214 -609 -460
-842 -212 -200 -477 -334 -771 -389 -138 -26 -392 -26 -530 0 -319 59 -575
195 -806 425 -230 231 -366 487 -425 806 -26 138 -26 392 0 530 59 319 194
574 425 806 262 261 520 385 926 443 70 10 344 -4 436 -23z"/>
<path d="M1724 3428 c-22 -10 -44 -47 -44 -73 0 -8 184 -383 409 -834 363
-726 413 -819 439 -830 16 -7 40 -9 55 -6 18 5 145 151 438 503 375 450 414
499 414 531 -1 31 -22 63 -168 246 -92 116 -178 215 -190 222 -20 11 -1293
254 -1321 252 -6 0 -21 -5 -32 -11z m756 -284 c228 -42 416 -78 418 -79 2 -2
-58 -89 -134 -194 l-136 -191 -42 37 c-22 21 -157 143 -298 272 -142 128 -258
236 -258 238 0 2 8 2 18 -1 9 -3 204 -40 432 -82z m-179 -384 c239 -217 254
-233 252 -263 -6 -75 -44 -442 -46 -444 -2 -1 -110 212 -240 473 -131 262
-234 473 -229 470 5 -3 124 -109 263 -236z m830 119 c44 -55 78 -103 75 -106
-6 -6 -341 -83 -362 -83 -13 0 184 289 198 290 4 0 44 -45 89 -101z m7 -297
c-9 -23 -463 -559 -466 -551 -5 12 39 452 45 459 3 4 386 95 416 99 5 1 7 -3
5 -7z"/>
<path d="M1276 4089 c-20 -16 -26 -29 -26 -59 0 -70 72 -103 126 -57 35 31 37
77 4 112 -29 31 -68 32 -104 4z"/>
<path d="M3740 4085 c-33 -35 -31 -81 4 -112 34 -28 65 -29 100 -2 20 16 26
29 26 59 0 71 -82 106 -130 55z"/>
<path d="M1031 3844 c-28 -36 -27 -75 4 -104 35 -33 81 -31 112 4 28 34 29 65
2 100 -16 20 -29 26 -59 26 -30 0 -43 -6 -59 -26z"/>
<path d="M3971 3844 c-27 -35 -26 -66 2 -100 31 -35 77 -37 112 -4 51 48 16
130 -55 130 -30 0 -43 -6 -59 -26z"/>
<path d="M845 3575 c-16 -15 -25 -36 -25 -55 0 -36 38 -80 69 -80 35 0 69 22
82 51 32 78 -67 144 -126 84z"/>
<path d="M4174 3577 c-20 -17 -27 -33 -27 -57 0 -24 7 -40 27 -57 34 -28 65
-29 100 -2 37 29 37 89 0 118 -35 27 -66 26 -100 -2z"/>
<path d="M723 3290 c-47 -19 -58 -92 -20 -128 42 -40 107 -25 126 28 23 67
-41 127 -106 100z"/>
<path d="M4330 3287 c-37 -19 -52 -57 -39 -96 29 -81 149 -60 149 26 0 59 -59
97 -110 70z"/>
<path d="M611 2944 c-35 -45 -24 -96 26 -123 46 -24 113 21 113 76 0 65 -99
98 -139 47z"/>
<path d="M4395 2945 c-30 -29 -32 -64 -5 -98 47 -59 139 -30 140 44 1 71 -85
105 -135 54z"/>
<path d="M585 2615 c-16 -15 -25 -36 -25 -55 0 -19 9 -40 25 -55 15 -16 36
-25 55 -25 19 0 40 9 55 25 50 49 15 135 -55 135 -19 0 -40 -9 -55 -25z"/>
<path d="M4425 2615 c-50 -49 -15 -135 55 -135 41 0 80 39 80 80 0 19 -9 40
-25 55 -15 16 -36 25 -55 25 -19 0 -40 -9 -55 -25z"/>
<path d="M635 2298 c-49 -28 -59 -78 -24 -122 41 -52 139 -18 139 48 0 53 -72
99 -115 74z"/>
<path d="M4424 2300 c-28 -11 -54 -48 -54 -78 0 -64 99 -97 139 -46 35 45 24
96 -26 122 -25 14 -30 14 -59 2z"/>
<path d="M702 1960 c-49 -46 -15 -134 51 -134 60 0 95 48 76 104 -19 52 -86
68 -127 30z"/>
<path d="M4317 1968 c-24 -19 -38 -64 -28 -91 13 -34 39 -51 78 -51 44 0 73
32 73 78 0 60 -76 99 -123 64z"/>
<path d="M845 1655 c-49 -48 -15 -135 52 -135 32 1 55 15 71 47 18 34 14 52
-17 84 -36 36 -73 37 -106 4z"/>
<path d="M4174 1657 c-20 -17 -27 -33 -27 -57 0 -39 40 -80 79 -80 66 0 100
98 48 139 -35 27 -66 26 -100 -2z"/>
<path d="M1070 1403 c-8 -3 -25 -15 -37 -26 -50 -45 -12 -127 57 -127 69 0
103 73 58 124 -25 26 -54 37 -78 29z"/>
<path d="M4004 1400 c-28 -11 -54 -48 -54 -76 0 -12 9 -33 21 -48 44 -56 139
-20 139 54 0 46 -62 88 -106 70z"/>
<path d="M1276 1149 c-56 -44 -20 -139 54 -139 66 0 97 92 46 137 -34 28 -65
29 -100 2z"/>
<path d="M3744 1147 c-35 -31 -37 -77 -4 -112 48 -51 130 -16 130 55 0 70 -72
103 -126 57z"/>
<path d="M1564 968 c-24 -11 -44 -48 -44 -79 0 -31 44 -69 80 -69 39 0 80 39
80 75 0 31 -50 85 -77 84 -10 0 -28 -5 -39 -11z"/>
<path d="M3484 968 c-24 -11 -44 -48 -44 -79 0 -31 44 -69 80 -69 39 0 80 39
80 75 0 31 -50 85 -77 84 -10 0 -28 -5 -39 -11z"/>
<path d="M1870 827 c-76 -38 -51 -147 34 -147 65 0 101 85 56 130 -11 11 -24
20 -29 20 -5 0 -15 2 -23 5 -7 3 -24 -1 -38 -8z"/>
<path d="M3184 826 c-75 -33 -49 -146 33 -146 46 0 77 30 77 74 0 62 -53 96
-110 72z"/>
<path d="M2175 725 c-51 -50 -17 -136 54 -135 74 1 103 93 44 140 -34 27 -69
25 -98 -5z"/>
<path d="M2847 730 c-59 -47 -30 -139 44 -140 71 -1 105 85 54 135 -29 30 -64
32 -98 5z"/>
<path d="M2505 695 c-50 -49 -15 -135 55 -135 41 0 80 39 80 80 0 41 -39 80
-80 80 -19 0 -40 -9 -55 -25z"/>
</g>
</svg>
